<!-- Generated by IcoMoon.io -->
<svg version="1.1" xmlns="http://www.w3.org/2000/svg" width="37" height="37" viewBox="0 0 32 32">
<title>check</title>
<path fill="#fff200" d="M29.307 13.413c-0.714 0-1.293 0.579-1.293 1.293v1.302c-0.002 3.396-1.326 6.588-3.729 8.988-2.401 2.398-5.592 3.719-8.985 3.719-0.002 0-0.005 0-0.008 0-7.011-0.004-12.711-5.711-12.707-12.722 0.002-3.396 1.326-6.588 3.729-8.988 2.401-2.398 5.592-3.719 8.985-3.719 0.002 0 0.005 0 0.008 0 1.792 0.001 3.531 0.371 5.168 1.101 0.652 0.291 1.416-0.003 1.707-0.655s-0.003-1.416-0.655-1.707c-1.97-0.878-4.062-1.323-6.218-1.325-0.003 0-0.006 0-0.009 0-4.083 0-7.923 1.589-10.812 4.475-2.891 2.888-4.485 6.729-4.487 10.816s1.587 7.93 4.475 10.821 6.729 4.485 10.816 4.487c0.003 0 0.006 0 0.009 0 4.083 0 7.923-1.589 10.812-4.475 2.891-2.888 4.485-6.729 4.487-10.817v-1.303c0-0.714-0.579-1.293-1.293-1.293z"></path>
<path fill="#fff200" d="M31.621 2.488c-0.505-0.505-1.323-0.505-1.828 0l-14.494 14.494-3.288-3.288c-0.505-0.505-1.323-0.505-1.828 0s-0.505 1.323 0 1.828l4.202 4.202c0.252 0.252 0.583 0.379 0.914 0.379s0.662-0.126 0.914-0.379l15.408-15.408c0.505-0.505 0.505-1.323 0-1.828z"></path>
</svg>
